<?xml version="1.0" encoding="UTF-8" standalone="no"?>
<!DOCTYPE svg PUBLIC "-//W3C//DTD SVG 1.1//EN"
 "http://www.w3.org/Graphics/SVG/1.1/DTD/svg11.dtd">
<!-- Generated by graphviz version 12.0.0 (20240704.0754)
 -->
<!-- Title: exsclaim@localhost Pages: 1 -->
<svg width="1155pt" height="852pt"
 viewBox="0.00 0.00 1155.31 852.27" xmlns="http://www.w3.org/2000/svg" xmlns:xlink="http://www.w3.org/1999/xlink">
<g id="graph0" class="graph" transform="scale(1 1) rotate(0) translate(4 848.27)">
<title>exsclaim@localhost</title>
<polygon fill="white" stroke="none" points="-4,4 -4,-848.27 1151.31,-848.27 1151.31,4 -4,4"/>
<!-- article -->
<g id="node1" class="node">
<title>article</title>
<polygon fill="none" stroke="black" points="23.25,-681.77 23.25,-843.77 204.25,-843.77 204.25,-681.77 23.25,-681.77"/>
<text text-anchor="middle" x="113.75" y="-826.47" font-family="Times,serif" font-size="14.00">article</text>
<polyline fill="none" stroke="black" points="23.25,-818.52 204.25,-818.52"/>
<text text-anchor="start" x="31.25" y="-801.22" font-family="Times,serif" font-size="14.00">title : text</text>
<text text-anchor="start" x="31.25" y="-783.97" font-family="Times,serif" font-size="14.00"> url : varchar(200)</text>
<text text-anchor="start" x="31.25" y="-766.72" font-family="Times,serif" font-size="14.00"> license : varchar(200)</text>
<text text-anchor="start" x="31.25" y="-749.47" font-family="Times,serif" font-size="14.00"> open : boolean</text>
<text text-anchor="start" x="31.25" y="-732.22" font-family="Times,serif" font-size="14.00"> authors : varchar(250)</text>
<text text-anchor="start" x="31.25" y="-714.97" font-family="Times,serif" font-size="14.00"> abstract : text</text>
<polyline fill="none" stroke="black" points="23.25,-707.02 204.25,-707.02"/>
<text text-anchor="start" x="31.25" y="-689.72" font-family="Times,serif" font-size="14.00">id : varchar(32)</text>
</g>
<!-- figure -->
<g id="node2" class="node">
<title>figure</title>
<polygon fill="none" stroke="black" points="785.02,-690.39 785.02,-835.14 1026.77,-835.14 1026.77,-690.39 785.02,-690.39"/>
<text text-anchor="middle" x="905.89" y="-817.84" font-family="Times,serif" font-size="14.00">figure</text>
<polyline fill="none" stroke="black" points="785.02,-809.89 1026.77,-809.89"/>
<text text-anchor="start" x="793.02" y="-792.59" font-family="Times,serif" font-size="14.00">caption : text</text>
<text text-anchor="start" x="793.02" y="-775.34" font-family="Times,serif" font-size="14.00"> caption_delimiter : varchar(12)</text>
<text text-anchor="start" x="793.02" y="-758.09" font-family="Times,serif" font-size="14.00"> url : varchar(200)</text>
<text text-anchor="start" x="793.02" y="-740.84" font-family="Times,serif" font-size="14.00"> figure_path : varchar(100)</text>
<text text-anchor="start" x="793.02" y="-723.59" font-family="Times,serif" font-size="14.00"> article_id : varchar(32)</text>
<polyline fill="none" stroke="black" points="785.02,-715.64 1026.77,-715.64"/>
<text text-anchor="start" x="793.02" y="-698.34" font-family="Times,serif" font-size="14.00">id : varchar(40)</text>
</g>
<!-- figure&#45;&gt;article -->
<g id="edge1" class="edge">
<title>figure&#45;&gt;article</title>
<path fill="none" stroke="#595959" d="M784.72,-770.07C784.72,-770.07 216.2,-770.07 216.2,-770.07"/>
<polygon fill="#595959" stroke="#595959" points="216.2,-766.57 206.2,-770.07 216.2,-773.57 216.2,-766.57"/>
<text text-anchor="middle" x="458.46" y="-774.02" font-family="Times,serif" font-size="14.00">article_id:id</text>
</g>
<!-- results -->
<g id="node3" class="node">
<title>results</title>
<polygon fill="none" stroke="black" points="804.1,-140.27 804.1,-285.02 1022.6,-285.02 1022.6,-140.27 804.1,-140.27"/>
<text text-anchor="middle" x="913.35" y="-267.72" font-family="Times,serif" font-size="14.00">results</text>
<polyline fill="none" stroke="black" points="804.1,-259.77 1022.6,-259.77"/>
<text text-anchor="start" x="812.1" y="-242.47" font-family="Times,serif" font-size="14.00">start_time : timestamp</text>
<text text-anchor="start" x="812.1" y="-225.22" font-family="Times,serif" font-size="14.00"> end_time : timestamp</text>
<text text-anchor="start" x="812.1" y="-207.97" font-family="Times,serif" font-size="14.00"> search_query : jsonb</text>
<text text-anchor="start" x="812.1" y="-190.72" font-family="Times,serif" font-size="14.00"> extension : save_extensions</text>
<text text-anchor="start" x="812.1" y="-173.47" font-family="Times,serif" font-size="14.00"> status : status</text>
<polyline fill="none" stroke="black" points="804.1,-165.52 1022.6,-165.52"/>
<text text-anchor="start" x="812.1" y="-148.22" font-family="Times,serif" font-size="14.00">id : uuid</text>
</g>
<!-- scale -->
<g id="node4" class="node">
<title>scale</title>
<polygon fill="none" stroke="black" points="0,-264.48 0,-460.98 227.5,-460.98 227.5,-264.48 0,-264.48"/>
<text text-anchor="middle" x="113.75" y="-443.68" font-family="Times,serif" font-size="14.00">scale</text>
<polyline fill="none" stroke="black" points="0,-435.73 227.5,-435.73"/>
<text text-anchor="start" x="8" y="-418.43" font-family="Times,serif" font-size="14.00">x1 : integer</text>
<text text-anchor="start" x="8" y="-401.18" font-family="Times,serif" font-size="14.00"> y1 : integer</text>
<text text-anchor="start" x="8" y="-383.93" font-family="Times,serif" font-size="14.00"> x2 : integer</text>
<text text-anchor="start" x="8" y="-366.68" font-family="Times,serif" font-size="14.00"> y2 : integer</text>
<text text-anchor="start" x="8" y="-349.43" font-family="Times,serif" font-size="14.00"> length : varchar(8)</text>
<text text-anchor="start" x="8" y="-332.18" font-family="Times,serif" font-size="14.00"> label_line_distance : integer</text>
<text text-anchor="start" x="8" y="-314.93" font-family="Times,serif" font-size="14.00"> confidence : double precision</text>
<text text-anchor="start" x="8" y="-297.68" font-family="Times,serif" font-size="14.00"> subfigure_id : varchar(44)</text>
<polyline fill="none" stroke="black" points="0,-289.73 227.5,-289.73"/>
<text text-anchor="start" x="8" y="-272.43" font-family="Times,serif" font-size="14.00">id : varchar(48)</text>
</g>
<!-- subfigure -->
<g id="node6" class="node">
<title>subfigure</title>
<polygon fill="none" stroke="black" points="369.59,-438.5 369.59,-704 596.34,-704 596.34,-438.5 369.59,-438.5"/>
<text text-anchor="middle" x="482.97" y="-686.7" font-family="Times,serif" font-size="14.00">subfigure</text>
<polyline fill="none" stroke="black" points="369.59,-678.75 596.34,-678.75"/>
<text text-anchor="start" x="377.59" y="-661.45" font-family="Times,serif" font-size="14.00">classification_code : char(2)</text>
<text text-anchor="start" x="377.59" y="-644.2" font-family="Times,serif" font-size="14.00"> height : double precision</text>
<text text-anchor="start" x="377.59" y="-626.95" font-family="Times,serif" font-size="14.00"> width : double precision</text>
<text text-anchor="start" x="377.59" y="-609.7" font-family="Times,serif" font-size="14.00"> nm_height : double precision</text>
<text text-anchor="start" x="377.59" y="-592.45" font-family="Times,serif" font-size="14.00"> nm_width : double precision</text>
<text text-anchor="start" x="377.59" y="-575.2" font-family="Times,serif" font-size="14.00"> x1 : integer</text>
<text text-anchor="start" x="377.59" y="-557.95" font-family="Times,serif" font-size="14.00"> y1 : integer</text>
<text text-anchor="start" x="377.59" y="-540.7" font-family="Times,serif" font-size="14.00"> x2 : integer</text>
<text text-anchor="start" x="377.59" y="-523.45" font-family="Times,serif" font-size="14.00"> y2 : integer</text>
<text text-anchor="start" x="377.59" y="-506.2" font-family="Times,serif" font-size="14.00"> caption : text</text>
<text text-anchor="start" x="377.59" y="-488.95" font-family="Times,serif" font-size="14.00"> keywords : varchar(20) []</text>
<text text-anchor="start" x="377.59" y="-471.7" font-family="Times,serif" font-size="14.00"> figure_id : varchar(40)</text>
<polyline fill="none" stroke="black" points="369.59,-463.75 596.34,-463.75"/>
<text text-anchor="start" x="377.59" y="-446.45" font-family="Times,serif" font-size="14.00">id : varchar(44)</text>
</g>
<!-- scale&#45;&gt;subfigure -->
<g id="edge2" class="edge">
<title>scale&#45;&gt;subfigure</title>
<path fill="none" stroke="#595959" d="M227.79,-449.74C227.79,-449.74 357.87,-449.74 357.87,-449.74"/>
<polygon fill="#595959" stroke="#595959" points="357.87,-453.24 367.87,-449.74 357.87,-446.24 357.87,-453.24"/>
<text text-anchor="middle" x="292.83" y="-436.44" font-family="Times,serif" font-size="14.00">subfigure_id:id</text>
</g>
<!-- scalelabel -->
<g id="node5" class="node">
<title>scalelabel</title>
<polygon fill="none" stroke="black" points="305.53,-0.5 305.53,-189 574.28,-189 574.28,-0.5 305.53,-0.5"/>
<text text-anchor="middle" x="439.91" y="-171.7" font-family="Times,serif" font-size="14.00">scalelabel</text>
<polyline fill="none" stroke="black" points="305.53,-163.75 574.28,-163.75"/>
<text text-anchor="start" x="313.53" y="-146.45" font-family="Times,serif" font-size="14.00">text : varchar(15)</text>
<text text-anchor="start" x="313.53" y="-129.2" font-family="Times,serif" font-size="14.00"> x1 : integer</text>
<text text-anchor="start" x="313.53" y="-111.95" font-family="Times,serif" font-size="14.00"> y1 : integer</text>
<text text-anchor="start" x="313.53" y="-94.7" font-family="Times,serif" font-size="14.00"> x2 : integer</text>
<text text-anchor="start" x="313.53" y="-77.45" font-family="Times,serif" font-size="14.00"> y2 : integer</text>
<text text-anchor="start" x="313.53" y="-60.2" font-family="Times,serif" font-size="14.00"> label_confidence : double precision</text>
<text text-anchor="start" x="313.53" y="-42.95" font-family="Times,serif" font-size="14.00"> box_confidence : double precision</text>
<text text-anchor="start" x="313.53" y="-25.7" font-family="Times,serif" font-size="14.00"> nm : double precision</text>
<text text-anchor="start" x="313.53" y="-8.45" font-family="Times,serif" font-size="14.00"> scale_bar_id : varchar(48)</text>
</g>
<!-- scalelabel&#45;&gt;scale -->
<g id="edge3" class="edge">
<title>scalelabel&#45;&gt;scale</title>
<path fill="none" stroke="#595959" d="M337.56,-189.5C337.56,-232.86 337.56,-274.75 337.56,-274.75 337.56,-274.75 239.46,-274.75 239.46,-274.75"/>
<polygon fill="#595959" stroke="#595959" points="239.46,-271.25 229.46,-274.75 239.46,-278.25 239.46,-271.25"/>
<text text-anchor="middle" x="383.64" y="-278.7" font-family="Times,serif" font-size="14.00">scale_bar_id:id</text>
</g>
<!-- subfigure&#45;&gt;figure -->
<g id="edge4" class="edge">
<title>subfigure&#45;&gt;figure</title>
<path fill="none" stroke="#595959" d="M596.58,-697.19C596.58,-697.19 773.1,-697.19 773.1,-697.19"/>
<polygon fill="#595959" stroke="#595959" points="773.1,-700.69 783.1,-697.19 773.1,-693.69 773.1,-700.69"/>
<text text-anchor="middle" x="644.71" y="-701.14" font-family="Times,serif" font-size="14.00">figure_id:id</text>
</g>
<!-- subfigurelabel -->
<g id="node7" class="node">
<title>subfigurelabel</title>
<polygon fill="none" stroke="black" points="878.56,-396.28 878.56,-567.53 1147.31,-567.53 1147.31,-396.28 878.56,-396.28"/>
<text text-anchor="middle" x="1012.93" y="-550.23" font-family="Times,serif" font-size="14.00">subfigurelabel</text>
<polyline fill="none" stroke="black" points="878.56,-542.28 1147.31,-542.28"/>
<text text-anchor="start" x="886.56" y="-524.98" font-family="Times,serif" font-size="14.00">text : varchar(15)</text>
<text text-anchor="start" x="886.56" y="-507.73" font-family="Times,serif" font-size="14.00"> x1 : integer</text>
<text text-anchor="start" x="886.56" y="-490.48" font-family="Times,serif" font-size="14.00"> y1 : integer</text>
<text text-anchor="start" x="886.56" y="-473.23" font-family="Times,serif" font-size="14.00"> x2 : integer</text>
<text text-anchor="start" x="886.56" y="-455.98" font-family="Times,serif" font-size="14.00"> y2 : integer</text>
<text text-anchor="start" x="886.56" y="-438.73" font-family="Times,serif" font-size="14.00"> label_confidence : double precision</text>
<text text-anchor="start" x="886.56" y="-421.48" font-family="Times,serif" font-size="14.00"> box_confidence : double precision</text>
<text text-anchor="start" x="886.56" y="-404.23" font-family="Times,serif" font-size="14.00"> subfigure_id : varchar(44)</text>
</g>
<!-- subfigurelabel&#45;&gt;subfigure -->
<g id="edge5" class="edge">
<title>subfigurelabel&#45;&gt;subfigure</title>
<path fill="none" stroke="#595959" d="M878.17,-503.01C878.17,-503.01 607.98,-503.01 607.98,-503.01"/>
<polygon fill="#595959" stroke="#595959" points="607.98,-499.51 597.98,-503.01 607.98,-506.51 607.98,-499.51"/>
<text text-anchor="middle" x="690.2" y="-506.96" font-family="Times,serif" font-size="14.00">subfigure_id:id</text>
</g>
</g>
</svg>
